M48
INCH,LZ
;FILE_FORMAT=2:4
;TYPE=PLATED
;Layer: PTH_Through_Via
;EasyEDA v6.5.57, 2026-09-11 20:53:33
;210b0bdec7af49b3b610ac47861e1cc5,984f17caf8e64d74ab637535f18e314c,10
;Gerber Generator version 0.2
;Holesize 1 = 0.0120 inch
T01C0.0120
%
G05
G90
T01
X028144Y003100
X028644Y003100
X029144Y003100
X029644Y003100
X030144Y003100
X030644Y003100
X031144Y003100
X032144Y003100
X032644Y003100
X033144Y003100
X033644Y003100
X034144Y003100
X034644Y003100
X034644Y008900
X034144Y008900
X033644Y008900
X033144Y008900
X032644Y008900
X032144Y008900
X031644Y008900
X031144Y008900
X030644Y008900
X030144Y008900
X029644Y008900
X029144Y008900
X028644Y008900
X028144Y008900
X027090Y009220
X022610Y007630
X021640Y007630
X022010Y007340
X021800Y006730
X019020Y007580
X018230Y007300
X025510Y007030
X024650Y006816
X026750Y006840
X026310Y006820
X027250Y002850
X025100Y002950
X024380Y004100
X020000Y004180
X015758Y003800
X014950Y003640
X022370Y004820
X021100Y005510
X021590Y005520
X022670Y005700
X031890Y007120
X032170Y006850
X031610Y006840
X031060Y006840
X031340Y007110
X031340Y006560
X031610Y006300
X032160Y006300
X031880Y006010
X031350Y006020
X031060Y006300
X031880Y006560
X027330Y009720
X020690Y005540
X013110Y006280
X013110Y005910
X019660Y006560
X018740Y006560
X019660Y005600
X019250Y006570
X018760Y005590
X019200Y005590
X016380Y006820
X016350Y005700
X014640Y006630
X014550Y005700
X013210Y007200
X012850Y005070
X011970Y007950
X010710Y008170
X012530Y008250
X011730Y003320
X011500Y003700
X012050Y005490
X010600Y006870
X010600Y005070
X013880Y007090
X013310Y004980
X014100Y004700
X014770Y004710
X012250Y004900
X011270Y007840
X012000Y004050
X020020Y004570
X018340Y004270
X020520Y006350
X026900Y005740
X026520Y005730
X020580Y006010
X025540Y005970
X019260Y004550
M30
