G04 Layer: BottomSilkscreenLayer*
G04 EasyEDA v6.5.57, 2026-09-11 20:53:33*
G04 210b0bdec7af49b3b610ac47861e1cc5,984f17caf8e64d74ab637535f18e314c,10*
G04 Gerber Generator version 0.2*
G04 Scale: 100 percent, Rotated: No, Reflected: No *
G04 Dimensions in inches *
G04 leading zeros omitted , absolute positions ,3 integer and 6 decimal *
%FSLAX36Y36*%
%MOIN*%

%ADD10C,0.0060*%
%ADD11C,0.0075*%
%ADD12C,0.0141*%

%LPD*%
D10*
X1487412Y555401D02*
G01*
X1487412Y535716D01*
X1520671Y561401D02*
G01*
X1493410Y561401D01*
X1526670Y535716D02*
G01*
X1526670Y555401D01*
X1526586Y498598D02*
G01*
X1526586Y518283D01*
X1487330Y518283D02*
G01*
X1487330Y498598D01*
X1493328Y492597D02*
G01*
X1520589Y492597D01*
D11*
X1340970Y543283D02*
G01*
X1333028Y543283D01*
X1372433Y543283D02*
G01*
X1372398Y543283D01*
X1321286Y578717D02*
G01*
X1301566Y578717D01*
X1372433Y578717D02*
G01*
X1352713Y578717D01*
X1372433Y578717D02*
G01*
X1372433Y543283D01*
X1301566Y578717D02*
G01*
X1301566Y543283D01*
X1301601Y543283D02*
G01*
X1301566Y543283D01*
X1335029Y674717D02*
G01*
X1342970Y674717D01*
X1303567Y674717D02*
G01*
X1303600Y674717D01*
X1354714Y639283D02*
G01*
X1374432Y639283D01*
X1303567Y639283D02*
G01*
X1323285Y639283D01*
X1303567Y639283D02*
G01*
X1303567Y674717D01*
X1374432Y639283D02*
G01*
X1374432Y674717D01*
X1374399Y674717D02*
G01*
X1374432Y674717D01*
D10*
X1543370Y528094D02*
G01*
X1543370Y499825D01*
X1582629Y499825D01*
X1582629Y528094D01*
X1543370Y545906D02*
G01*
X1543370Y574175D01*
X1582629Y574175D01*
X1582629Y545906D01*
X1470630Y517905D02*
G01*
X1470630Y546174D01*
X1431369Y546174D01*
X1431369Y517905D01*
X1470630Y500093D02*
G01*
X1470630Y471824D01*
X1431369Y471824D01*
X1431369Y500093D01*
G75*
G01*
X1487329Y498599D02*
G03*
X1493329Y492599I6000J0D01*
G75*
G01*
X1520589Y492599D02*
G03*
X1526589Y498599I0J6000D01*
G75*
G01*
X1526671Y555401D02*
G03*
X1520671Y561401I-6000J0D01*
G75*
G01*
X1493411Y561401D02*
G03*
X1487411Y555401I0J-6000D01*
D11*
G75*
G01
X1379400Y531080D02*
G03X1379400Y531080I-2640J0D01*
G75*
G01
X1301880Y686920D02*
G03X1301880Y686920I-2640J0D01*
M02*
