G04 Layer: BottomPasteMaskLayer*
G04 EasyEDA v6.5.57, 2026-09-11 20:53:33*
G04 210b0bdec7af49b3b610ac47861e1cc5,984f17caf8e64d74ab637535f18e314c,10*
G04 Gerber Generator version 0.2*
G04 Scale: 100 percent, Rotated: No, Reflected: No *
G04 Dimensions in inches *
G04 leading zeros omitted , absolute positions ,3 integer and 6 decimal *
%FSLAX36Y36*%
%MOIN*%

%AMMACRO1*21,1,$1,$2,0,0,$3*%
%ADD10C,0.0630*%
%ADD11MACRO1,0.0197X0.0213X-90.0000*%
%ADD12MACRO1,0.0157X0.0201X0.0000*%
%ADD13C,0.0106*%

%LPD*%
G36*
X1553940Y565180D02*
G01*
X1552380Y563600D01*
X1552380Y543900D01*
X1553940Y542320D01*
X1572060Y542320D01*
X1573640Y543900D01*
X1573640Y563600D01*
X1572060Y565180D01*
G37*
G36*
X1553940Y531680D02*
G01*
X1552380Y530100D01*
X1552380Y510400D01*
X1553940Y508820D01*
X1572060Y508820D01*
X1573640Y510400D01*
X1573640Y530100D01*
X1572060Y531680D01*
G37*
G36*
X1441940Y503680D02*
G01*
X1440380Y502100D01*
X1440380Y482400D01*
X1441940Y480820D01*
X1460060Y480820D01*
X1461620Y482400D01*
X1461620Y502100D01*
X1460060Y503680D01*
G37*
G36*
X1441940Y537180D02*
G01*
X1440380Y535600D01*
X1440380Y515880D01*
X1441940Y514320D01*
X1460060Y514320D01*
X1461620Y515880D01*
X1461620Y535600D01*
X1460060Y537180D01*
G37*
D10*
G01*
X1850000Y950000D03*
D11*
G01*
X1506999Y510464D03*
G01*
X1506999Y543535D03*
D12*
G01*
X1336999Y586591D03*
G01*
X1356684Y535408D03*
G01*
X1317314Y535408D03*
G01*
X1339000Y631409D03*
G01*
X1319315Y682590D03*
G01*
X1358685Y682590D03*
M02*
