G04 Layer: BottomLayer*
G04 EasyEDA v6.5.57, 2026-09-11 20:53:33*
G04 210b0bdec7af49b3b610ac47861e1cc5,984f17caf8e64d74ab637535f18e314c,10*
G04 Gerber Generator version 0.2*
G04 Scale: 100 percent, Rotated: No, Reflected: No *
G04 Dimensions in inches *
G04 leading zeros omitted , absolute positions ,3 integer and 6 decimal *
%FSLAX36Y36*%
%MOIN*%

%AMMACRO1*21,1,$1,$2,0,0,$3*%
%ADD10C,0.0100*%
%ADD11C,0.0630*%
%ADD12MACRO1,0.0197X0.0213X-90.0000*%
%ADD13MACRO1,0.0157X0.0201X0.0000*%
%ADD14R,0.0213X0.0223*%
%ADD15MACRO1,0.0213X0.0223X0.0000*%
%ADD16R,0.0630X0.0630*%
%ADD17C,0.0532*%
%ADD18C,0.0141*%
%ADD19O,0.074803X0.04724*%
%ADD20R,0.0394X0.0394*%
%ADD21C,0.0394*%
%ADD22C,0.0244*%

%LPD*%
D10*
X3114429Y310000D02*
G01*
X3105995Y310000D01*
X2973994Y441999D01*
X2426000Y441999D01*
X2384004Y400000D01*
X2300000Y400000D01*
X2257997Y358000D01*
X2091997Y358000D01*
X2058999Y325000D01*
X1942997Y325000D01*
X1867997Y250000D01*
X1848999Y250000D01*
X1562997Y519960D02*
G01*
X1562997Y519000D01*
X1473999Y430000D01*
X1456000Y430000D01*
X1423999Y398000D01*
X1396999Y398000D01*
X1248999Y250000D01*
X2437997Y410000D02*
G01*
X2437997Y388000D01*
X2430000Y380000D01*
X2310000Y380000D01*
X2267997Y338000D01*
X2108999Y338000D01*
X2072997Y301999D01*
X2002997Y301999D01*
X2002997Y250000D01*
X1948999Y250000D01*
X3064399Y310000D02*
G01*
X3057002Y310000D01*
X2948002Y418998D01*
X2438000Y418998D01*
X2438000Y410000D01*
X3014429Y310000D02*
G01*
X3014429Y315570D01*
X3002997Y326999D01*
X2987002Y326999D01*
X2975000Y338998D01*
X2958002Y338998D01*
X2898002Y398998D01*
X2481000Y398998D01*
X2440000Y358000D01*
X2318999Y358000D01*
X2278999Y318000D01*
X2116999Y318000D01*
X2048999Y250000D01*
X2964429Y310000D02*
G01*
X2956005Y310000D01*
X2925995Y340000D01*
X2916000Y340000D01*
X2877002Y378998D01*
X2495000Y378998D01*
X2453002Y336999D01*
X2330005Y336999D01*
X2291005Y298000D01*
X2196999Y298000D01*
X2148999Y250000D01*
X2914399Y310000D02*
G01*
X2881400Y343000D01*
X2853002Y343000D01*
X2837002Y358998D01*
X2505000Y358998D01*
X2463002Y316999D01*
X2343999Y316999D01*
X2276999Y250000D01*
X2248999Y250000D01*
X2864399Y310000D02*
G01*
X2853999Y310000D01*
X2826000Y338000D01*
X2513999Y338000D01*
X2472997Y296999D01*
X2423002Y296999D01*
X2376003Y250000D01*
X2348999Y250000D01*
X2814399Y310000D02*
G01*
X2807399Y316999D01*
X2558000Y316999D01*
X2536000Y295000D01*
X2510000Y295000D01*
X2725000Y285000D02*
G01*
X2725000Y296999D01*
X2627002Y296999D01*
X2580002Y250000D01*
X2548999Y250000D01*
X1311000Y628000D02*
G01*
X1314411Y631410D01*
X1338999Y631410D01*
X1311000Y591001D02*
G01*
X1315411Y586590D01*
X1336999Y586590D01*
X1358701Y682600D02*
G01*
X1385101Y709000D01*
X1388000Y709000D01*
X1317299Y535399D02*
G01*
X1316999Y511999D01*
X1331000Y498000D01*
X1451000Y491959D02*
G01*
X1429040Y470000D01*
X1410000Y470000D01*
X1507002Y510459D02*
G01*
X1476999Y480457D01*
X1476999Y470999D01*
X1336999Y560999D02*
G01*
X1356689Y541309D01*
X1356689Y535410D01*
X1356689Y535410D02*
G01*
X1366059Y526039D01*
X1451000Y526039D01*
X1451000Y526039D02*
G01*
X1468500Y543539D01*
X1506999Y543539D01*
X1506999Y543539D02*
G01*
X1517500Y554040D01*
X1563000Y554040D01*
X1319300Y682600D02*
G01*
X1256999Y620300D01*
X1256999Y484000D01*
X1287700Y453299D01*
X1287700Y441599D01*
X1255000Y559803D02*
G01*
X1256196Y560999D01*
X1336999Y560999D01*
X1225000Y490000D02*
G01*
X1233000Y498000D01*
X1233000Y710999D01*
X1168999Y775000D01*
X1168999Y858000D01*
X1250000Y939000D01*
X1250000Y950000D01*
X1126999Y784000D02*
G01*
X1118999Y775999D01*
X1118999Y486001D01*
X1200000Y405000D01*
X3308999Y310000D02*
G01*
X3308999Y319000D01*
X3268999Y359000D01*
X3173000Y359000D01*
X3028000Y504000D01*
X2389600Y504000D01*
X2345600Y460000D01*
X2263599Y460000D01*
X2224600Y420999D01*
X2056599Y420999D01*
X2018599Y383000D01*
X1913000Y383000D01*
X1871000Y340999D01*
X1708999Y340999D01*
X1686999Y319000D01*
X1491999Y319000D01*
X1491999Y250000D01*
X1448999Y250000D01*
X3264399Y310000D02*
G01*
X3256999Y310000D01*
X3228999Y338000D01*
X3158000Y338000D01*
X3013000Y483000D01*
X2405000Y483000D01*
X2361999Y440000D01*
X2281000Y440000D01*
X2241000Y400000D01*
X2073000Y400000D01*
X2036000Y363000D01*
X1921000Y363000D01*
X1881000Y323000D01*
X1718999Y323000D01*
X1695000Y299000D01*
X1581000Y299000D01*
X1558000Y275999D01*
X1548999Y275999D01*
X1548999Y250000D01*
X2708999Y921999D02*
G01*
X2690000Y903000D01*
X2566999Y903000D01*
X2550000Y920000D01*
X2550000Y950000D01*
X3214399Y310000D02*
G01*
X3156000Y310000D01*
X3003999Y461999D01*
X2413999Y461999D01*
X2371999Y420000D01*
X2290000Y420000D01*
X2250000Y380000D01*
X2083999Y380000D01*
X2048999Y345000D01*
X1931999Y345000D01*
X1890000Y303000D01*
X1731000Y303000D01*
X1678000Y250000D01*
X1648999Y250000D01*
X1575780Y380000D02*
G01*
X1596782Y401001D01*
X1948999Y401001D01*
X1965997Y418000D01*
X2000000Y418000D01*
X2814399Y890000D02*
G01*
X2814399Y883000D01*
X2423000Y883000D01*
X2356000Y950000D01*
X2375000Y950000D01*
X2864399Y890000D02*
G01*
X2838400Y864000D01*
X2416000Y864000D01*
X2375000Y905000D01*
X2315000Y905000D01*
X2270000Y950000D01*
X2250000Y950000D01*
X2914399Y890000D02*
G01*
X2906999Y890000D01*
X2863000Y845999D01*
X2403999Y845999D01*
X2366000Y884000D01*
X2281999Y884000D01*
X2266000Y900000D01*
X2173000Y900000D01*
X2150000Y923000D01*
X2150000Y950000D01*
X2964399Y890000D02*
G01*
X2931400Y856999D01*
X2903999Y856999D01*
X2873000Y825999D01*
X2396000Y825999D01*
X2356999Y865000D01*
X2268000Y865000D01*
X2253000Y880000D01*
X2120000Y880000D01*
X2050000Y950000D01*
X1850000Y950000D02*
G01*
X1895000Y905000D01*
X1966000Y905000D01*
X2081999Y789000D01*
X2248999Y789000D01*
X2278000Y818000D01*
X2348000Y818000D01*
X2376000Y790000D01*
X2906999Y790000D01*
X2931999Y815000D01*
X2960000Y815000D01*
X3015000Y860000D01*
X3034399Y860000D01*
X3064399Y890000D01*
X3114399Y890000D02*
G01*
X3064399Y840000D01*
X3025000Y840000D01*
X2975000Y795000D01*
X2938999Y795000D01*
X2913999Y770000D01*
X2438428Y770000D01*
X2373729Y705300D01*
X2220000Y705300D01*
X2220000Y700000D01*
X2145000Y700000D01*
X1960000Y885000D01*
X1815000Y885000D01*
X1750000Y950000D01*
X3164399Y890000D02*
G01*
X3154899Y890000D01*
X3085000Y820000D01*
X3035000Y820000D01*
X2990000Y775000D01*
X2945000Y775000D01*
X2920000Y750000D01*
X2448000Y750000D01*
X2383000Y685000D01*
X2235000Y685000D01*
X2195000Y645000D01*
X2165000Y645000D01*
X1945000Y865000D01*
X1805000Y865000D01*
X1770000Y900000D01*
X1700000Y900000D01*
X1650000Y950000D01*
X2002002Y456999D02*
G01*
X1973999Y456999D01*
X1942997Y426001D01*
X1833999Y426001D01*
X1833999Y426999D01*
X3364399Y890000D02*
G01*
X3358397Y883998D01*
X3341099Y883998D01*
X3341099Y873101D01*
X3262997Y795000D01*
X3188397Y795000D01*
X3132402Y738998D01*
X3069198Y738998D01*
X3024198Y693998D01*
X2979198Y693998D01*
X2954198Y668998D01*
X2737402Y668998D01*
X2703397Y635000D01*
X2635000Y635000D01*
X2635000Y606001D01*
X2597997Y568998D01*
X2535000Y568998D01*
X2533999Y570000D01*
X2266999Y570000D01*
X2051999Y635000D02*
G01*
X2038001Y621001D01*
X1356000Y621001D01*
X1345591Y631410D01*
X1338999Y631410D01*
X1319309Y682590D02*
G01*
X1338999Y662899D01*
X1338999Y631410D01*
X1337002Y586588D02*
G01*
X1351413Y600999D01*
X2058000Y600999D01*
X3264399Y890000D02*
G01*
X3209399Y835000D01*
X3165000Y835000D01*
X3110000Y780000D01*
X3053400Y780000D01*
X3008400Y735000D01*
X2963400Y735000D01*
X2938400Y710000D01*
X2610000Y710000D01*
X2546000Y645999D01*
X2256999Y645999D01*
X2218000Y606999D01*
X2146000Y606999D01*
X1928000Y825000D01*
X1780000Y825000D01*
X1745000Y860000D01*
X1610000Y860000D01*
X1575000Y895000D01*
X1505000Y895000D01*
X1450000Y950000D01*
X3314399Y890000D02*
G01*
X3239399Y815000D01*
X3180000Y815000D01*
X3125000Y760000D01*
X3061800Y760000D01*
X3016800Y715000D01*
X2971800Y715000D01*
X2946800Y690000D01*
X2730000Y690000D01*
X2695000Y655000D01*
X2595000Y655000D01*
X2565000Y625000D01*
X2263400Y625000D01*
X2224399Y585999D01*
X2141000Y585999D01*
X1926999Y800000D01*
X1770000Y800000D01*
X1735000Y835000D01*
X1605000Y835000D01*
X1565100Y874899D01*
X1425100Y874899D01*
X1350000Y950000D01*
X3414399Y310000D02*
G01*
X3373400Y350999D01*
X3343999Y350999D01*
X3293999Y400999D01*
X3191000Y400999D01*
X3131999Y460000D01*
X3131999Y460999D01*
X3046999Y545999D01*
X2363999Y545999D01*
X2321999Y504000D01*
X2293400Y504000D01*
X2293400Y506599D01*
X2261000Y539000D01*
X2255299Y539000D01*
X2253299Y540999D01*
X2205500Y540999D01*
X2141499Y476999D01*
X2053999Y476999D01*
X2003999Y526999D01*
X1586000Y526999D01*
X1578999Y520000D01*
X1563000Y520000D01*
X3364399Y310000D02*
G01*
X3356000Y310000D01*
X3285000Y380999D01*
X3181999Y380999D01*
X3038000Y525000D01*
X2373999Y525000D01*
X2328000Y480999D01*
X2288000Y480999D01*
X2248999Y520000D01*
X2223999Y520000D01*
X2160000Y455999D01*
X2048000Y455999D01*
X2008999Y495000D01*
X1568999Y495000D01*
X1476999Y403000D01*
X1461000Y403000D01*
X1348999Y290999D01*
X1348999Y250000D01*
X1495000Y363998D02*
G01*
X1598002Y466999D01*
X1795000Y466999D01*
X1806999Y455000D01*
X1926000Y455000D01*
X3014399Y890000D02*
G01*
X2950000Y835000D01*
X2926000Y835000D01*
X2898999Y808000D01*
X2386999Y808000D01*
X2356999Y838000D01*
X2271000Y838000D01*
X2243000Y810000D01*
X2090000Y810000D01*
X1950000Y950000D01*
X3214399Y890000D02*
G01*
X3184399Y860000D01*
X3155000Y860000D01*
X3095000Y800000D01*
X3045000Y800000D01*
X3000000Y755000D01*
X2955000Y755000D01*
X2930000Y730000D01*
X2455000Y730000D01*
X2391999Y666999D01*
X2246999Y666999D01*
X2205000Y625000D01*
X2155000Y625000D01*
X1935000Y845000D01*
X1790000Y845000D01*
X1755000Y880000D01*
X1630000Y880000D01*
X1560000Y950000D01*
X1550000Y950000D01*
D11*
G01*
X1850000Y950000D03*
D12*
G01*
X1506999Y510464D03*
G01*
X1506999Y543535D03*
D13*
G01*
X1336999Y586591D03*
G01*
X1356684Y535408D03*
G01*
X1317314Y535408D03*
G01*
X1339000Y631409D03*
G01*
X1319315Y682590D03*
G01*
X1358685Y682590D03*
D14*
G01*
X1563000Y554040D03*
D15*
G01*
X1563000Y519959D03*
D14*
G01*
X1451000Y491959D03*
D15*
G01*
X1450999Y526040D03*
D16*
G01*
X1050000Y950000D03*
D11*
G01*
X1150000Y950000D03*
G01*
X1250000Y950000D03*
G01*
X1350000Y950000D03*
G01*
X1450000Y950000D03*
G01*
X1550000Y950000D03*
G01*
X1650000Y950000D03*
G01*
X1750000Y950000D03*
G01*
X1950000Y950000D03*
G01*
X2050000Y950000D03*
G01*
X2150000Y950000D03*
G01*
X2250000Y950000D03*
G01*
X2350000Y950000D03*
G01*
X2450000Y950000D03*
G01*
X2550000Y950000D03*
G01*
X2650000Y950000D03*
D16*
G01*
X1048999Y250000D03*
D11*
G01*
X1148999Y250000D03*
G01*
X1248999Y250000D03*
G01*
X1348999Y250000D03*
G01*
X1448999Y250000D03*
G01*
X1548999Y250000D03*
G01*
X1648999Y250000D03*
G01*
X1748999Y250000D03*
G01*
X1848999Y250000D03*
G01*
X1948999Y250000D03*
G01*
X2048999Y250000D03*
G01*
X2148999Y250000D03*
G01*
X2248999Y250000D03*
G01*
X2348999Y250000D03*
G01*
X2448999Y250000D03*
G01*
X2548999Y250000D03*
G01*
X2648999Y250000D03*
D17*
G01*
X1163149Y698420D03*
G01*
X1163149Y501570D03*
D19*
G01*
X1056859Y462199D03*
G01*
X1056859Y737800D03*
D20*
G01*
X1237680Y441599D03*
D21*
G01*
X1287680Y441599D03*
G01*
X2120000Y845999D03*
G01*
X2170000Y845999D03*
G01*
X2220000Y845999D03*
D22*
G01*
X2814430Y310000D03*
G01*
X2864430Y310000D03*
G01*
X2914430Y310000D03*
G01*
X2964430Y310000D03*
G01*
X3014430Y310000D03*
G01*
X3064430Y310000D03*
G01*
X3114430Y310000D03*
G01*
X3214430Y310000D03*
G01*
X3264430Y310000D03*
G01*
X3314430Y310000D03*
G01*
X3364430Y310000D03*
G01*
X3414430Y310000D03*
G01*
X3464430Y310000D03*
G01*
X3464430Y890000D03*
G01*
X3414430Y890000D03*
G01*
X3364430Y890000D03*
G01*
X3314430Y890000D03*
G01*
X3264430Y890000D03*
G01*
X3214430Y890000D03*
G01*
X3164430Y890000D03*
G01*
X3114430Y890000D03*
G01*
X3064430Y890000D03*
G01*
X3014430Y890000D03*
G01*
X2964430Y890000D03*
G01*
X2914430Y890000D03*
G01*
X2864430Y890000D03*
G01*
X2814430Y890000D03*
G01*
X2708999Y921999D03*
G01*
X2261000Y763000D03*
G01*
X2163999Y763000D03*
G01*
X2201000Y734000D03*
G01*
X2180000Y673000D03*
G01*
X1901999Y758000D03*
G01*
X1822960Y730000D03*
G01*
X2551000Y703000D03*
G01*
X2465000Y681610D03*
G01*
X2675000Y684000D03*
G01*
X2631000Y681999D03*
G01*
X2725000Y285000D03*
G01*
X2510000Y295000D03*
G01*
X2438000Y410000D03*
G01*
X2000000Y418000D03*
G01*
X1575780Y380000D03*
G01*
X1495000Y364000D03*
G01*
X2236999Y481999D03*
G01*
X2110000Y550999D03*
G01*
X2158999Y551999D03*
G01*
X2266999Y570000D03*
G01*
X3188999Y711999D03*
G01*
X3216999Y685000D03*
G01*
X3161000Y684000D03*
G01*
X3106000Y684000D03*
G01*
X3133999Y710999D03*
G01*
X3133999Y655999D03*
G01*
X3161000Y630000D03*
G01*
X3216000Y630000D03*
G01*
X3188000Y600999D03*
G01*
X3135000Y601999D03*
G01*
X3106000Y630000D03*
G01*
X3188000Y655999D03*
G01*
X2733000Y971999D03*
G01*
X2068999Y554000D03*
G01*
X1311000Y628000D03*
G01*
X1311000Y590999D03*
G01*
X1966000Y655999D03*
G01*
X1873999Y655999D03*
G01*
X1966000Y560000D03*
G01*
X1925000Y656999D03*
G01*
X1876000Y559000D03*
G01*
X1920000Y559000D03*
G01*
X1638000Y681999D03*
G01*
X1635000Y570000D03*
G01*
X1463999Y663000D03*
G01*
X1455000Y570000D03*
G01*
X1321000Y720000D03*
G01*
X1285000Y506999D03*
G01*
X1196999Y795000D03*
G01*
X1071000Y816999D03*
G01*
X1253000Y825000D03*
G01*
X1173000Y331999D03*
G01*
X1150000Y370000D03*
G01*
X1205000Y549000D03*
G01*
X1060000Y686999D03*
G01*
X1060000Y506999D03*
G01*
X1388000Y709000D03*
G01*
X1331000Y498000D03*
G01*
X1410000Y470000D03*
G01*
X1476999Y470999D03*
G01*
X1225000Y490000D03*
G01*
X1126999Y784000D03*
G01*
X1200000Y405000D03*
G01*
X2001999Y456999D03*
G01*
X1833999Y426999D03*
G01*
X2051999Y635000D03*
G01*
X2690000Y574000D03*
G01*
X2651999Y573000D03*
G01*
X2058000Y600999D03*
G01*
X2553999Y596999D03*
G01*
X1926000Y455000D03*
M02*
