G04 Layer: TopSilkscreenLayer*
G04 EasyEDA v6.5.57, 2026-09-11 20:53:33*
G04 210b0bdec7af49b3b610ac47861e1cc5,984f17caf8e64d74ab637535f18e314c,10*
G04 Gerber Generator version 0.2*
G04 Scale: 100 percent, Rotated: No, Reflected: No *
G04 Dimensions in inches *
G04 leading zeros omitted , absolute positions ,3 integer and 6 decimal *
%FSLAX36Y36*%
%MOIN*%

%ADD10C,0.0060*%
%ADD11C,0.0051*%
%ADD12C,0.0039*%
%ADD13C,0.0100*%
%ADD14C,0.0059*%
%ADD15C,0.0146*%

%LPD*%
G36*
X1219000Y754000D02*
G01*
X1230000Y745000D01*
X1241000Y754000D01*
G37*
G36*
X1230000Y745000D02*
G01*
X1219000Y736000D01*
X1241000Y736000D01*
G37*
G36*
X1274000Y669000D02*
G01*
X1285000Y660000D01*
X1296000Y669000D01*
G37*
G36*
X1285000Y660000D02*
G01*
X1274000Y651000D01*
X1296000Y651000D01*
G37*
G36*
X1285000Y565000D02*
G01*
X1274000Y556000D01*
X1296000Y556000D01*
G37*
G36*
X1274000Y574000D02*
G01*
X1285000Y565000D01*
X1296000Y574000D01*
G37*
D10*
X2341400Y759412D02*
G01*
X2321715Y759412D01*
X2347402Y792671D02*
G01*
X2347402Y765410D01*
X2321715Y798670D02*
G01*
X2341400Y798670D01*
X2284598Y798587D02*
G01*
X2304283Y798587D01*
X2304283Y759329D02*
G01*
X2284598Y759329D01*
X2278598Y765327D02*
G01*
X2278598Y792588D01*
X2488411Y625599D02*
G01*
X2488411Y645284D01*
X2521670Y619598D02*
G01*
X2494411Y619598D01*
X2527671Y645284D02*
G01*
X2527671Y625599D01*
X2527587Y682400D02*
G01*
X2527587Y662716D01*
X2488329Y662716D02*
G01*
X2488329Y682400D01*
X2494327Y688402D02*
G01*
X2521589Y688402D01*
X1260411Y736599D02*
G01*
X1260411Y756284D01*
X1293671Y730598D02*
G01*
X1266410Y730598D01*
X1299670Y756284D02*
G01*
X1299670Y736599D01*
X1299587Y793400D02*
G01*
X1299587Y773715D01*
X1260330Y773715D02*
G01*
X1260330Y793400D01*
X1266328Y799402D02*
G01*
X1293589Y799402D01*
X2080411Y576599D02*
G01*
X2080411Y596284D01*
X2113671Y570598D02*
G01*
X2086410Y570598D01*
X2119670Y596284D02*
G01*
X2119670Y576599D01*
X2119587Y633400D02*
G01*
X2119587Y613715D01*
X2080330Y613715D02*
G01*
X2080330Y633400D01*
X2086328Y639402D02*
G01*
X2113589Y639402D01*
X2076598Y709587D02*
G01*
X2096283Y709587D01*
X2070598Y676329D02*
G01*
X2070598Y703589D01*
X2096283Y670329D02*
G01*
X2076598Y670329D01*
X2133401Y670412D02*
G01*
X2113716Y670412D01*
X2113716Y709670D02*
G01*
X2133401Y709670D01*
X2139402Y703672D02*
G01*
X2139402Y676410D01*
X1066598Y359587D02*
G01*
X1086283Y359587D01*
X1060598Y326329D02*
G01*
X1060598Y353589D01*
X1086283Y320329D02*
G01*
X1066598Y320329D01*
X1123401Y320412D02*
G01*
X1103716Y320412D01*
X1103716Y359670D02*
G01*
X1123401Y359670D01*
X1129402Y353672D02*
G01*
X1129402Y326410D01*
X1149400Y821412D02*
G01*
X1129715Y821412D01*
X1155402Y854670D02*
G01*
X1155402Y827411D01*
X1129715Y860671D02*
G01*
X1149400Y860671D01*
X1092599Y860587D02*
G01*
X1112283Y860587D01*
X1112283Y821329D02*
G01*
X1092599Y821329D01*
X1086598Y827328D02*
G01*
X1086598Y854589D01*
X2189598Y416588D02*
G01*
X2209283Y416588D01*
X2183598Y383328D02*
G01*
X2183598Y410588D01*
X2209283Y377328D02*
G01*
X2189598Y377328D01*
X2246400Y377413D02*
G01*
X2226715Y377413D01*
X2226715Y416669D02*
G01*
X2246400Y416669D01*
X2252402Y410671D02*
G01*
X2252402Y383411D01*
X2650411Y606599D02*
G01*
X2650411Y626284D01*
X2683671Y600598D02*
G01*
X2656410Y600598D01*
X2689670Y626284D02*
G01*
X2689670Y606599D01*
X2689587Y663400D02*
G01*
X2689587Y643715D01*
X2650330Y643715D02*
G01*
X2650330Y663400D01*
X2656328Y669402D02*
G01*
X2683589Y669402D01*
X2664588Y864400D02*
G01*
X2664588Y844715D01*
X2631328Y870401D02*
G01*
X2658589Y870401D01*
X2625329Y844715D02*
G01*
X2625329Y864400D01*
X2625412Y807599D02*
G01*
X2625412Y827283D01*
X2664669Y827283D02*
G01*
X2664669Y807599D01*
X2658671Y801597D02*
G01*
X2631410Y801597D01*
X1238587Y369400D02*
G01*
X1238587Y349715D01*
X1205329Y375401D02*
G01*
X1232588Y375401D01*
X1199328Y349715D02*
G01*
X1199328Y369400D01*
X1199413Y312599D02*
G01*
X1199413Y332283D01*
X1238670Y332283D02*
G01*
X1238670Y312599D01*
X1232672Y306597D02*
G01*
X1205411Y306597D01*
X2695307Y540574D02*
G01*
X2639795Y540574D01*
X2639795Y469425D02*
G01*
X2695307Y469425D01*
X2701306Y475425D02*
G01*
X2701306Y534574D01*
X2552692Y540574D02*
G01*
X2608204Y540574D01*
X2608204Y469425D02*
G01*
X2552692Y469425D01*
X2546692Y475425D02*
G01*
X2546692Y534574D01*
D11*
X1210315Y719409D02*
G01*
X1210315Y770590D01*
X1249684Y719409D02*
G01*
X1249684Y770590D01*
D12*
X1221000Y745000D02*
G01*
X1240000Y745000D01*
D11*
X1265315Y634409D02*
G01*
X1265315Y685590D01*
X1304684Y634409D02*
G01*
X1304684Y685590D01*
D12*
X1276000Y660000D02*
G01*
X1295000Y660000D01*
D11*
X1304684Y590590D02*
G01*
X1304684Y539409D01*
X1265315Y590590D02*
G01*
X1265315Y539409D01*
D12*
X1293999Y565000D02*
G01*
X1275000Y565000D01*
D13*
X1100002Y999212D02*
G01*
X1100002Y900787D01*
X1000002Y900787D02*
G01*
X2699997Y900787D01*
X1000002Y999212D02*
G01*
X1000002Y900787D01*
X2699997Y999212D02*
G01*
X1000002Y999212D01*
X2699997Y900787D02*
G01*
X2699997Y999212D01*
X1099002Y299212D02*
G01*
X1099002Y200787D01*
X999002Y200787D02*
G01*
X2698998Y200787D01*
X999002Y299212D02*
G01*
X999002Y200787D01*
X2698998Y299212D02*
G01*
X999002Y299212D01*
X2698998Y200787D02*
G01*
X2698998Y299212D01*
X1169056Y449989D02*
G01*
X1169054Y466141D01*
X1169056Y749209D02*
G01*
X1169054Y733438D01*
X1169056Y449989D02*
G01*
X1100986Y449989D01*
X1169056Y749209D02*
G01*
X1101297Y749209D01*
X956457Y720000D02*
G01*
X956457Y480000D01*
X1002357Y450000D02*
G01*
X982357Y430000D01*
X972357Y440000D01*
X972357Y450000D01*
X982357Y460000D01*
X982357Y470000D01*
X972357Y480000D01*
X1002357Y750000D02*
G01*
X1002357Y720000D01*
X1002357Y686610D02*
G01*
X1002357Y520000D01*
X1002357Y486610D02*
G01*
X1002357Y450000D01*
X1002357Y750000D02*
G01*
X982357Y770000D01*
X972357Y760000D01*
X972357Y750000D01*
X982357Y740000D01*
X982357Y730000D01*
X972357Y720000D01*
X1012727Y449989D02*
G01*
X1002357Y449989D01*
X1012416Y749209D02*
G01*
X1002357Y749209D01*
X1312677Y427438D02*
G01*
X1312677Y395344D01*
X1312677Y487863D02*
G01*
X1312677Y455769D01*
X1212677Y414555D02*
G01*
X1212677Y395344D01*
X1212677Y487863D02*
G01*
X1212677Y468652D01*
X1312677Y395344D02*
G01*
X1212677Y395344D01*
X1312677Y487863D02*
G01*
X1212677Y487863D01*
X2090079Y885369D02*
G01*
X2249920Y885369D01*
X2090079Y885369D02*
G01*
X2090079Y806630D01*
X2249920Y885369D02*
G01*
X2249920Y806630D01*
X2090079Y806630D02*
G01*
X2249920Y806630D01*
X2542874Y814684D02*
G01*
X2527125Y798937D01*
X2523189Y795000D01*
X2527125Y791053D01*
X2542874Y775304D01*
X2542874Y814684D02*
G01*
X2542874Y775304D01*
X2552449Y754949D02*
G01*
X2613450Y754949D01*
X2613450Y834949D01*
X2552449Y834949D01*
X2521450Y753949D02*
G01*
X2463450Y753949D01*
X2447449Y769949D01*
X2447449Y819949D01*
X2462449Y834949D01*
X2522449Y834949D01*
X2554682Y450401D02*
G01*
X2612952Y450794D01*
X2560196Y375992D02*
G01*
X2612952Y375992D01*
X2612952Y450794D02*
G01*
X2612952Y375990D01*
X2466098Y375597D02*
G01*
X2466098Y375599D01*
X2452321Y389376D01*
X2466098Y450401D02*
G01*
X2466098Y450399D01*
X2452321Y436622D01*
X2515312Y450401D02*
G01*
X2466098Y450401D01*
X2515312Y375597D02*
G01*
X2466098Y375597D01*
X2452321Y436622D02*
G01*
X2452321Y389376D01*
X2546810Y432685D02*
G01*
X2546810Y393314D01*
X2546810Y412800D02*
G01*
X2527125Y412800D01*
D10*
X2614629Y631093D02*
G01*
X2614629Y602824D01*
X2575370Y602824D01*
X2575370Y631093D01*
X2614629Y648906D02*
G01*
X2614629Y677175D01*
X2575370Y677175D01*
X2575370Y648906D01*
X2490370Y543906D02*
G01*
X2490370Y572175D01*
X2529629Y572175D01*
X2529629Y543906D01*
X2490370Y526093D02*
G01*
X2490370Y497824D01*
X2529629Y497824D01*
X2529629Y526093D01*
X1953905Y813629D02*
G01*
X1982174Y813629D01*
X1982174Y774369D01*
X1953905Y774369D01*
X1936094Y813629D02*
G01*
X1907825Y813629D01*
X1907825Y774369D01*
X1936094Y774369D01*
X1438094Y293369D02*
G01*
X1409825Y293369D01*
X1409825Y332629D01*
X1438094Y332629D01*
X1455906Y293369D02*
G01*
X1484174Y293369D01*
X1484174Y332629D01*
X1455906Y332629D01*
X1549831Y313602D02*
G01*
X1521562Y313602D01*
X1521562Y352862D01*
X1549831Y352862D01*
X1567644Y313602D02*
G01*
X1595913Y313602D01*
X1595913Y352862D01*
X1567644Y352862D01*
X2086094Y490369D02*
G01*
X2057825Y490369D01*
X2057825Y529630D01*
X2086094Y529630D01*
X2103905Y490369D02*
G01*
X2132174Y490369D01*
X2132174Y529630D01*
X2103905Y529630D01*
X2016094Y744369D02*
G01*
X1987825Y744369D01*
X1987825Y783629D01*
X2016094Y783629D01*
X2033905Y744369D02*
G01*
X2062174Y744369D01*
X2062174Y783629D01*
X2033905Y783629D01*
X1860906Y811630D02*
G01*
X1889174Y811630D01*
X1889174Y772370D01*
X1860906Y772370D01*
X1843094Y811630D02*
G01*
X1814825Y811630D01*
X1814825Y772370D01*
X1843094Y772370D01*
X1940370Y398906D02*
G01*
X1940370Y427175D01*
X1979629Y427175D01*
X1979629Y398906D01*
X1940370Y381093D02*
G01*
X1940370Y352824D01*
X1979629Y352824D01*
X1979629Y381093D01*
X2096094Y745369D02*
G01*
X2067825Y745369D01*
X2067825Y784630D01*
X2096094Y784630D01*
X2113905Y745369D02*
G01*
X2142174Y745369D01*
X2142174Y784630D01*
X2113905Y784630D01*
X2164093Y438369D02*
G01*
X2135825Y438369D01*
X2135825Y477629D01*
X2164093Y477629D01*
X2181905Y438369D02*
G01*
X2210174Y438369D01*
X2210174Y477629D01*
X2181905Y477629D01*
X2370370Y363906D02*
G01*
X2370370Y392175D01*
X2409629Y392175D01*
X2409629Y363906D01*
X2370370Y346093D02*
G01*
X2370370Y317824D01*
X2409629Y317824D01*
X2409629Y346093D01*
X2325370Y363906D02*
G01*
X2325370Y392175D01*
X2364629Y392175D01*
X2364629Y363906D01*
X2325370Y346093D02*
G01*
X2325370Y317824D01*
X2364629Y317824D01*
X2364629Y346093D01*
D13*
X1660100Y605100D02*
G01*
X1660100Y364899D01*
X1422799Y364899D01*
X1422799Y605100D01*
X1660100Y605100D01*
X1429899Y614899D02*
G01*
X1429899Y855100D01*
X1667200Y855100D01*
X1667200Y614899D01*
X1429899Y614899D01*
D10*
X2465952Y516008D02*
G01*
X2204047Y516008D01*
X2204047Y623991D01*
X2465952Y623991D01*
X2465952Y516008D01*
X1847933Y503575D02*
G01*
X1818575Y503575D01*
X1818575Y532932D01*
X1847933Y706424D02*
G01*
X1818575Y706424D01*
X1818575Y677067D01*
X1992066Y503575D02*
G01*
X2021424Y503575D01*
X2021424Y532932D01*
X1992066Y706424D02*
G01*
X2021424Y706424D01*
X2021424Y677067D01*
D13*
X3757682Y243665D02*
G01*
X3503118Y243665D01*
X3757682Y952328D02*
G01*
X3503746Y952328D01*
X3757682Y243665D02*
G01*
X3757682Y952328D01*
X3510281Y243665D02*
G01*
X3510281Y952328D01*
X3490248Y242997D02*
G01*
X3510281Y242997D01*
X2753746Y346179D02*
G01*
X2753746Y242997D01*
X2786611Y242997D01*
X2786611Y952328D02*
G01*
X2753746Y952328D01*
X2753746Y849812D01*
X3510281Y952328D02*
G01*
X3490248Y952328D01*
D10*
X2019912Y413591D02*
G01*
X2019912Y356408D01*
X2060528Y356408D01*
X2140087Y413591D02*
G01*
X2140087Y356408D01*
X2099471Y356408D01*
X2062070Y413591D02*
G01*
X2097929Y413591D01*
X1772912Y413591D02*
G01*
X1772912Y356408D01*
X1813527Y356408D01*
X1893086Y413591D02*
G01*
X1893086Y356408D01*
X1852471Y356408D01*
X1815070Y413591D02*
G01*
X1850928Y413591D01*
G75*
G01*
X2284599Y759329D02*
G02*
X2278599Y765329I0J6000D01*
G75*
G01*
X2278599Y792589D02*
G02*
X2284599Y798589I6000J0D01*
G75*
G01*
X2341401Y798671D02*
G02*
X2347401Y792671I0J-6000D01*
G75*
G01*
X2347401Y765411D02*
G02*
X2341401Y759411I-6000J0D01*
G75*
G01*
X2488329Y682401D02*
G02*
X2494329Y688401I6000J0D01*
G75*
G01*
X2521589Y688401D02*
G02*
X2527589Y682401I0J-6000D01*
G75*
G01*
X2527671Y625599D02*
G02*
X2521671Y619599I-6000J0D01*
G75*
G01*
X2494411Y619599D02*
G02*
X2488411Y625599I0J6000D01*
G75*
G01*
X1260329Y793401D02*
G02*
X1266329Y799401I6000J0D01*
G75*
G01*
X1293589Y799401D02*
G02*
X1299589Y793401I0J-6000D01*
G75*
G01*
X1299671Y736599D02*
G02*
X1293671Y730599I-6000J0D01*
G75*
G01*
X1266411Y730599D02*
G02*
X1260411Y736599I0J6000D01*
G75*
G01*
X2080329Y633401D02*
G02*
X2086329Y639401I6000J0D01*
G75*
G01*
X2113589Y639401D02*
G02*
X2119589Y633401I0J-6000D01*
G75*
G01*
X2119671Y576599D02*
G02*
X2113671Y570599I-6000J0D01*
G75*
G01*
X2086411Y570599D02*
G02*
X2080411Y576599I0J6000D01*
G75*
G01*
X2133401Y709671D02*
G02*
X2139401Y703671I0J-6000D01*
G75*
G01*
X2139401Y676411D02*
G02*
X2133401Y670411I-6000J0D01*
G75*
G01*
X2076599Y670329D02*
G02*
X2070599Y676329I0J6000D01*
G75*
G01*
X2070599Y703589D02*
G02*
X2076599Y709589I6000J0D01*
G75*
G01*
X1123401Y359671D02*
G02*
X1129401Y353671I0J-6000D01*
G75*
G01*
X1129401Y326411D02*
G02*
X1123401Y320411I-6000J0D01*
G75*
G01*
X1066599Y320329D02*
G02*
X1060599Y326329I0J6000D01*
G75*
G01*
X1060599Y353589D02*
G02*
X1066599Y359589I6000J0D01*
G75*
G01*
X1092599Y821329D02*
G02*
X1086599Y827329I0J6000D01*
G75*
G01*
X1086599Y854589D02*
G02*
X1092599Y860589I6000J0D01*
G75*
G01*
X1149401Y860671D02*
G02*
X1155401Y854671I0J-6000D01*
G75*
G01*
X1155401Y827411D02*
G02*
X1149401Y821411I-6000J0D01*
G75*
G01*
X2246401Y416671D02*
G02*
X2252401Y410671I0J-6000D01*
G75*
G01*
X2252401Y383411D02*
G02*
X2246401Y377411I-6000J0D01*
G75*
G01*
X2189599Y377329D02*
G02*
X2183599Y383329I0J6000D01*
G75*
G01*
X2183599Y410589D02*
G02*
X2189599Y416589I6000J0D01*
G75*
G01*
X2650329Y663401D02*
G02*
X2656329Y669401I6000J0D01*
G75*
G01*
X2683589Y669401D02*
G02*
X2689589Y663401I0J-6000D01*
G75*
G01*
X2689671Y606599D02*
G02*
X2683671Y600599I-6000J0D01*
G75*
G01*
X2656411Y600599D02*
G02*
X2650411Y606599I0J6000D01*
G75*
G01*
X2664671Y807599D02*
G02*
X2658671Y801599I-6000J0D01*
G75*
G01*
X2631411Y801599D02*
G02*
X2625411Y807599I0J6000D01*
G75*
G01*
X2625329Y864401D02*
G02*
X2631329Y870401I6000J0D01*
G75*
G01*
X2658589Y870401D02*
G02*
X2664589Y864401I0J-6000D01*
G75*
G01*
X1238671Y312599D02*
G02*
X1232671Y306599I-6000J0D01*
G75*
G01*
X1205411Y306599D02*
G02*
X1199411Y312599I0J6000D01*
G75*
G01*
X1199329Y369401D02*
G02*
X1205329Y375401I6000J0D01*
G75*
G01*
X1232589Y375401D02*
G02*
X1238589Y369401I0J-6000D01*
G75*
G01*
X2695307Y469425D02*
G03*
X2701307Y475425I0J6000D01*
G75*
G01*
X2701307Y534575D02*
G03*
X2695307Y540575I-6000J0D01*
G75*
G01*
X2552693Y469425D02*
G02*
X2546693Y475425I0J6000D01*
G75*
G01*
X2546693Y534575D02*
G02*
X2552693Y540575I6000J0D01*
D13*
G75*
G01
X1600210Y485000D02*
G03X1600210Y485000I-60210J0D01*
G75*
G01
X1476610Y402130D02*
G03X1476610Y402130I-18030J0D01*
G75*
G01
X1473030Y570710D02*
G03X1473030Y570710I-18030J0D01*
G75*
G01
X1642320Y569290D02*
G03X1642320Y569290I-18030J0D01*
G75*
G01
X1642120Y402400D02*
G03X1642120Y402400I-18030J0D01*
G75*
G01
X1610210Y735000D02*
G03X1610210Y735000I-60210J0D01*
G75*
G01
X1649450Y817870D02*
G03X1649450Y817870I-18030J0D01*
G75*
G01
X1653030Y649290D02*
G03X1653030Y649290I-18030J0D01*
G75*
G01
X1483740Y650710D02*
G03X1483740Y650710I-18030J0D01*
G75*
G01
X1483940Y817600D02*
G03X1483940Y817600I-18030J0D01*
D14*
G75*
G01
X2046180Y545950D02*
G03X2046180Y545950I-2950J0D01*
M02*
