G04 Layer: TopSolderMaskLayer*
G04 EasyEDA v6.5.57, 2026-09-11 20:53:33*
G04 210b0bdec7af49b3b610ac47861e1cc5,984f17caf8e64d74ab637535f18e314c,10*
G04 Gerber Generator version 0.2*
G04 Scale: 100 percent, Rotated: No, Reflected: No *
G04 Dimensions in inches *
G04 leading zeros omitted , absolute positions ,3 integer and 6 decimal *
%FSLAX36Y36*%
%MOIN*%

%AMMACRO1*4,1,8,-0.0107,-0.0126,-0.0118,-0.0115,-0.0118,0.0115,-0.0107,0.0126,0.0107,0.0126,0.0118,0.0115,0.0118,-0.0115,0.0107,-0.0126,-0.0107,-0.0126,0*%
%AMMACRO2*4,1,8,-0.0115,-0.0118,-0.0126,-0.0107,-0.0126,0.0107,-0.0115,0.0118,0.0115,0.0118,0.0126,0.0107,0.0126,-0.0107,0.0115,-0.0118,-0.0115,-0.0118,0*%
%AMMACRO3*4,1,8,-0.0286,-0.0286,-0.0298,-0.0274,-0.0298,0.0274,-0.0286,0.0286,0.0286,0.0286,0.0298,0.0274,0.0298,-0.0274,0.0286,-0.0286,-0.0286,-0.0286,0*%
%AMMACRO4*4,1,8,-0.0087,-0.0138,-0.0099,-0.0126,-0.0099,0.0126,-0.0087,0.0138,0.0087,0.0138,0.0099,0.0126,0.0099,-0.0126,0.0087,-0.0138,-0.0087,-0.0138,0*%
%AMMACRO5*4,1,8,-0.0323,-0.0335,-0.0335,-0.0323,-0.0335,0.0323,-0.0323,0.0335,0.0323,0.0335,0.0335,0.0323,0.0335,-0.0323,0.0323,-0.0335,-0.0323,-0.0335,0*%
%AMMACRO6*4,1,8,-0.0264,-0.0099,-0.0276,-0.0087,-0.0276,0.0087,-0.0264,0.0099,0.0264,0.0099,0.0276,0.0087,0.0276,-0.0087,0.0264,-0.0099,-0.0264,-0.0099,0*%
%AMMACRO7*4,1,8,-0.0264,-0.0098,-0.0276,-0.0087,-0.0276,0.0087,-0.0264,0.0098,0.0264,0.0098,0.0276,0.0087,0.0276,-0.0087,0.0264,-0.0098,-0.0264,-0.0098,0*%
%AMMACRO8*4,1,8,-0.0382,-0.0315,-0.0394,-0.0304,-0.0394,0.0304,-0.0382,0.0315,0.0382,0.0315,0.0394,0.0304,0.0394,-0.0304,0.0382,-0.0315,-0.0382,-0.0315,0*%
%AMMACRO9*4,1,8,-0.0205,-0.0217,-0.0217,-0.0205,-0.0217,0.0205,-0.0205,0.0217,0.0205,0.0217,0.0217,0.0205,0.0217,-0.0205,0.0205,-0.0217,-0.0205,-0.0217,0*%
%AMMACRO10*4,1,8,-0.0205,-0.0295,-0.0217,-0.0284,-0.0217,0.0284,-0.0205,0.0295,0.0205,0.0295,0.0217,0.0284,0.0217,-0.0284,0.0205,-0.0295,-0.0205,-0.0295,0*%
%AMMACRO11*4,1,8,-0.0205,-0.0266,-0.0217,-0.0254,-0.0217,0.0254,-0.0205,0.0266,0.0205,0.0266,0.0217,0.0254,0.0217,-0.0254,0.0205,-0.0266,-0.0205,-0.0266,0*%
%AMMACRO12*4,1,8,-0.0115,-0.0131,-0.0126,-0.012,-0.0126,0.012,-0.0115,0.0131,0.0115,0.0131,0.0126,0.012,0.0126,-0.012,0.0115,-0.0131,-0.0115,-0.0131,0*%
%AMMACRO13*4,1,8,-0.012,-0.0126,-0.0131,-0.0115,-0.0131,0.0115,-0.012,0.0126,0.012,0.0126,0.0131,0.0115,0.0131,-0.0115,0.012,-0.0126,-0.012,-0.0126,0*%
%AMMACRO14*4,1,8,-0.0382,-0.0276,-0.0394,-0.0264,-0.0394,0.0264,-0.0382,0.0276,0.0382,0.0276,0.0394,0.0264,0.0394,-0.0264,0.0382,-0.0276,-0.0382,-0.0276,0*%
%AMMACRO15*4,1,8,-0.0201,-0.0506,-0.0213,-0.0495,-0.0213,0.0495,-0.0201,0.0506,0.0201,0.0506,0.0213,0.0495,0.0213,-0.0495,0.0201,-0.0506,-0.0201,-0.0506,0*%
%AMMACRO16*4,1,8,-0.0717,-0.0506,-0.0729,-0.0495,-0.0729,0.0495,-0.0717,0.0506,0.0717,0.0506,0.0729,0.0495,0.0729,-0.0495,0.0717,-0.0506,-0.0717,-0.0506,0*%
%AMMACRO17*4,1,8,-0.0186,-0.0075,-0.0198,-0.0063,-0.0198,0.0063,-0.0186,0.0075,0.0186,0.0075,0.0198,0.0063,0.0198,-0.0063,0.0186,-0.0075,-0.0186,-0.0075,0*%
%AMMACRO18*4,1,8,-0.0063,-0.0198,-0.0075,-0.0186,-0.0075,0.0186,-0.0063,0.0198,0.0063,0.0198,0.0075,0.0186,0.0075,-0.0186,0.0063,-0.0198,-0.0063,-0.0198,0*%
%AMMACRO19*4,1,8,-0.0668,-0.0679,-0.0679,-0.0668,-0.0679,0.0668,-0.0668,0.0679,0.0668,0.0679,0.0679,0.0668,0.0679,-0.0668,0.0668,-0.0679,-0.0668,-0.0679,0*%
%AMMACRO20*4,1,8,-0.0195,-0.0433,-0.0207,-0.0422,-0.0207,0.0422,-0.0195,0.0433,0.0195,0.0433,0.0207,0.0422,0.0207,-0.0422,0.0195,-0.0433,-0.0195,-0.0433,0*%
%AMMACRO21*4,1,8,-0.0422,-0.0207,-0.0433,-0.0195,-0.0433,0.0195,-0.0422,0.0207,0.0422,0.0207,0.0433,0.0195,0.0433,-0.0195,0.0422,-0.0207,-0.0422,-0.0207,0*%
%AMMACRO22*4,1,8,-0.0185,-0.0197,-0.0197,-0.0185,-0.0197,0.0185,-0.0185,0.0197,0.0185,0.0197,0.0197,0.0185,0.0197,-0.0185,0.0185,-0.0197,-0.0185,-0.0197,0*%
%AMMACRO23*4,1,8,-0.0136,-0.0217,-0.0148,-0.0205,-0.0148,0.0205,-0.0136,0.0217,0.0136,0.0217,0.0148,0.0205,0.0148,-0.0205,0.0136,-0.0217,-0.0136,-0.0217,0*%
%ADD10MACRO1*%
%ADD11MACRO2*%
%ADD12MACRO3*%
%ADD13MACRO4*%
%ADD14MACRO5*%
%ADD15C,0.0670*%
%ADD16MACRO6*%
%ADD17MACRO7*%
%ADD18MACRO8*%
%ADD19C,0.0109*%
%ADD20C,0.0572*%
%ADD21O,0.078803X0.05124*%
%ADD22MACRO9*%
%ADD23C,0.0434*%
%ADD24MACRO10*%
%ADD25MACRO11*%
%ADD26MACRO12*%
%ADD27MACRO13*%
%ADD28MACRO14*%
%ADD29MACRO15*%
%ADD30MACRO16*%
%ADD31MACRO17*%
%ADD32MACRO18*%
%ADD33MACRO19*%
%ADD34MACRO20*%
%ADD35MACRO21*%
%ADD36MACRO22*%
%ADD37MACRO23*%

%LPD*%
D10*
G01*
X2296464Y779000D03*
G01*
X2329535Y779000D03*
D11*
G01*
X2508000Y670535D03*
G01*
X2508000Y637464D03*
G01*
X1280000Y781535D03*
G01*
X1280000Y748464D03*
G01*
X2100000Y621535D03*
G01*
X2100000Y588464D03*
D10*
G01*
X2121535Y690000D03*
G01*
X2088464Y690000D03*
G01*
X1111535Y340000D03*
G01*
X1078464Y340000D03*
G01*
X1104464Y840999D03*
G01*
X1137535Y840999D03*
G01*
X2234535Y397000D03*
G01*
X2201464Y397000D03*
D11*
G01*
X2670000Y651535D03*
G01*
X2670000Y618464D03*
G01*
X2645000Y819464D03*
G01*
X2645000Y852535D03*
G01*
X1218999Y324464D03*
G01*
X1218999Y357535D03*
D12*
G01*
X2663371Y505000D03*
G01*
X2584629Y505000D03*
D13*
G01*
X1230000Y774524D03*
G01*
X1230000Y715475D03*
G01*
X1285000Y689524D03*
G01*
X1285000Y630475D03*
G01*
X1285000Y535475D03*
G01*
X1285000Y594524D03*
D14*
G01*
X1050000Y950000D03*
D15*
G01*
X1150000Y950000D03*
G01*
X1250000Y950000D03*
G01*
X1350000Y950000D03*
G01*
X1450000Y950000D03*
G01*
X1550000Y950000D03*
G01*
X1650000Y950000D03*
G01*
X1750000Y950000D03*
G01*
X1950000Y950000D03*
G01*
X2050000Y950000D03*
G01*
X2150000Y950000D03*
G01*
X2250000Y950000D03*
G01*
X2350000Y950000D03*
G01*
X2450000Y950000D03*
G01*
X2550000Y950000D03*
G01*
X2650000Y950000D03*
D14*
G01*
X1049000Y250000D03*
D15*
G01*
X1148999Y250000D03*
G01*
X1248999Y250000D03*
G01*
X1348999Y250000D03*
G01*
X1448999Y250000D03*
G01*
X1548999Y250000D03*
G01*
X1648999Y250000D03*
G01*
X1748999Y250000D03*
G01*
X1848999Y250000D03*
G01*
X1948999Y250000D03*
G01*
X2048999Y250000D03*
G01*
X2148999Y250000D03*
G01*
X2248999Y250000D03*
G01*
X2348999Y250000D03*
G01*
X2448999Y250000D03*
G01*
X2548999Y250000D03*
G01*
X2648999Y250000D03*
D16*
G01*
X1162357Y548799D03*
G01*
X1162357Y574399D03*
G01*
X1162357Y600000D03*
G01*
X1162357Y625600D03*
D17*
G01*
X1162357Y651180D03*
D18*
G01*
X1059602Y560629D03*
G01*
X1059611Y639370D03*
D20*
G01*
X1163149Y698420D03*
G01*
X1163149Y501570D03*
D21*
G01*
X1056859Y462199D03*
G01*
X1056859Y737800D03*
D22*
G01*
X1237678Y441603D03*
D23*
G01*
X1287680Y441599D03*
G01*
X2120000Y845999D03*
G01*
X2170000Y845999D03*
G01*
X2220000Y845999D03*
D24*
G01*
X2493649Y795000D03*
G01*
X2576350Y795000D03*
D25*
G01*
X2578308Y413003D03*
G01*
X2491687Y413003D03*
D26*
G01*
X2595000Y657040D03*
G01*
X2595000Y622959D03*
G01*
X2510000Y517959D03*
G01*
X2510000Y552040D03*
D27*
G01*
X1927959Y794000D03*
G01*
X1962040Y794000D03*
G01*
X1464040Y312999D03*
G01*
X1429959Y312999D03*
G01*
X1575778Y333232D03*
G01*
X1541697Y333232D03*
G01*
X2112040Y510000D03*
G01*
X2077959Y510000D03*
G01*
X2042040Y764000D03*
G01*
X2007959Y764000D03*
G01*
X1834959Y792000D03*
G01*
X1869040Y792000D03*
D26*
G01*
X1960000Y372959D03*
G01*
X1960000Y407040D03*
D27*
G01*
X2122040Y765000D03*
G01*
X2087959Y765000D03*
G01*
X2190040Y457999D03*
G01*
X2155959Y457999D03*
D26*
G01*
X2390000Y337959D03*
G01*
X2390000Y372040D03*
G01*
X2345000Y337959D03*
G01*
X2345000Y372040D03*
D28*
G01*
X1705353Y396420D03*
G01*
X1374646Y396420D03*
G01*
X1705353Y573579D03*
G01*
X1374646Y573579D03*
G01*
X1384646Y823579D03*
G01*
X1715353Y823579D03*
G01*
X1384646Y646420D03*
G01*
X1715353Y646420D03*
D29*
G01*
X2425551Y681613D03*
G01*
X2335000Y681613D03*
G01*
X2244448Y681613D03*
D30*
G01*
X2335000Y458386D03*
D31*
G01*
X2013600Y545950D03*
G01*
X2013600Y565629D03*
G01*
X2013600Y585319D03*
G01*
X2013600Y605000D03*
G01*
X2013600Y624690D03*
G01*
X2013600Y644370D03*
G01*
X2013600Y664059D03*
D32*
G01*
X1979050Y698599D03*
G01*
X1959369Y698599D03*
G01*
X1939679Y698599D03*
G01*
X1920000Y698599D03*
G01*
X1900309Y698599D03*
G01*
X1880630Y698599D03*
G01*
X1860940Y698599D03*
D31*
G01*
X1826399Y664059D03*
G01*
X1826399Y644370D03*
G01*
X1826399Y624690D03*
G01*
X1826399Y605000D03*
G01*
X1826399Y585319D03*
G01*
X1826399Y565629D03*
G01*
X1826399Y545950D03*
D32*
G01*
X1860940Y511400D03*
G01*
X1880630Y511400D03*
G01*
X1900309Y511400D03*
G01*
X1920000Y511400D03*
G01*
X1939679Y511400D03*
G01*
X1959369Y511400D03*
G01*
X1979050Y511400D03*
D33*
G01*
X1920000Y605000D03*
D34*
G01*
X3463432Y952332D03*
G01*
X3413432Y952332D03*
G01*
X3363432Y952332D03*
G01*
X3313432Y952332D03*
G01*
X3263432Y952332D03*
G01*
X3213432Y952332D03*
G01*
X3163432Y952332D03*
G01*
X3113432Y952332D03*
G01*
X3063432Y952332D03*
G01*
X3013432Y952332D03*
G01*
X2963432Y952332D03*
G01*
X2913432Y952332D03*
G01*
X2863432Y952332D03*
G01*
X2813432Y952332D03*
D35*
G01*
X2754574Y822995D03*
G01*
X2754574Y772995D03*
G01*
X2754574Y722995D03*
G01*
X2754574Y672995D03*
G01*
X2754574Y622995D03*
G01*
X2754574Y572995D03*
G01*
X2754574Y522995D03*
G01*
X2754574Y472995D03*
G01*
X2754574Y422995D03*
G01*
X2754574Y372995D03*
D34*
G01*
X2813432Y243667D03*
G01*
X2863432Y243667D03*
G01*
X2913432Y243667D03*
G01*
X2963432Y243667D03*
G01*
X3013432Y243667D03*
G01*
X3063432Y243667D03*
G01*
X3113432Y243667D03*
G01*
X3163432Y243667D03*
G01*
X3213432Y243667D03*
G01*
X3263432Y243667D03*
G01*
X3313432Y243667D03*
G01*
X3363432Y243667D03*
G01*
X3413432Y243667D03*
G01*
X3463432Y243667D03*
D36*
G01*
X3161028Y657065D03*
G01*
X3161027Y712173D03*
G01*
X3161027Y601936D03*
G01*
X3216147Y601936D03*
G01*
X3216147Y657055D03*
G01*
X3216147Y712173D03*
G01*
X3105914Y712173D03*
G01*
X3105911Y657055D03*
G01*
X3105914Y601936D03*
D37*
G01*
X2117400Y424370D03*
G01*
X2042599Y424370D03*
G01*
X2080000Y345629D03*
G01*
X1870399Y424370D03*
G01*
X1795599Y424370D03*
G01*
X1832999Y345629D03*
M02*
