G04 Layer: TopPasteMaskLayer*
G04 EasyEDA v6.5.57, 2026-09-11 20:53:33*
G04 210b0bdec7af49b3b610ac47861e1cc5,984f17caf8e64d74ab637535f18e314c,10*
G04 Gerber Generator version 0.2*
G04 Scale: 100 percent, Rotated: No, Reflected: No *
G04 Dimensions in inches *
G04 leading zeros omitted , absolute positions ,3 integer and 6 decimal *
%FSLAX36Y36*%
%MOIN*%

%AMMACRO1*21,1,$1,$2,0,0,$3*%
%ADD10R,0.0197X0.0213*%
%ADD11R,0.0213X0.0197*%
%ADD12R,0.0157X0.0236*%
%ADD13MACRO1,0.0394X0.0551X0.0000*%
%ADD14R,0.0394X0.0551*%
%ADD15R,0.0394X0.0492*%
%ADD16R,0.0748X0.0512*%
%ADD17R,0.0103X0.0512*%
%ADD18R,0.0386X0.0972*%
%ADD19MACRO1,0.1417X0.0972X0.0000*%
%ADD20R,0.0374X0.0827*%
%ADD21R,0.0827X0.0374*%
%ADD22R,0.0354X0.0354*%
%ADD23R,0.0256X0.0394*%
%ADD24C,0.0266*%

%LPD*%
G36*
X2558840Y532160D02*
G01*
X2556880Y530200D01*
X2556880Y479799D01*
X2558840Y477840D01*
X2604120Y477840D01*
X2606080Y479799D01*
X2605899Y496340D01*
X2588560Y496340D01*
X2588560Y514060D01*
X2606280Y514060D01*
X2606080Y530200D01*
X2604120Y532160D01*
G37*
G36*
X2643880Y532160D02*
G01*
X2641920Y530200D01*
X2642100Y513660D01*
X2659440Y513660D01*
X2659440Y495940D01*
X2641720Y495940D01*
X2641920Y479799D01*
X2643880Y477840D01*
X2689160Y477840D01*
X2691120Y479799D01*
X2691120Y530200D01*
X2689160Y532160D01*
G37*
G36*
X1043060Y485800D02*
G01*
X1040280Y485640D01*
X1038880Y485439D01*
X1036160Y484780D01*
X1033540Y483800D01*
X1031060Y482520D01*
X1029860Y481780D01*
X1027640Y480080D01*
X1025639Y478120D01*
X1023880Y475959D01*
X1022380Y473579D01*
X1021180Y471060D01*
X1020680Y469739D01*
X1019960Y467040D01*
X1019700Y465680D01*
X1019460Y462879D01*
X1019539Y460080D01*
X1019960Y457320D01*
X1020680Y454620D01*
X1021740Y452020D01*
X1023100Y449580D01*
X1024720Y447299D01*
X1026620Y445240D01*
X1028740Y443400D01*
X1031060Y441840D01*
X1033540Y440560D01*
X1036160Y439600D01*
X1038880Y438940D01*
X1041660Y438600D01*
X1070620Y438560D01*
X1073420Y438720D01*
X1076180Y439219D01*
X1078860Y440040D01*
X1081420Y441160D01*
X1083820Y442600D01*
X1084960Y443400D01*
X1087080Y445240D01*
X1088980Y447299D01*
X1090600Y449580D01*
X1091960Y452020D01*
X1093000Y454620D01*
X1093420Y455959D01*
X1094000Y458700D01*
X1094240Y461480D01*
X1094160Y464280D01*
X1094000Y465680D01*
X1093420Y468400D01*
X1092520Y471060D01*
X1091320Y473579D01*
X1089820Y475959D01*
X1088060Y478120D01*
X1086040Y480080D01*
X1083820Y481780D01*
X1081420Y483200D01*
X1078860Y484320D01*
X1076180Y485140D01*
X1073420Y485640D01*
X1070620Y485800D01*
G37*
G36*
X1043060Y761400D02*
G01*
X1040280Y761220D01*
X1037540Y760720D01*
X1034880Y759880D01*
X1032340Y758740D01*
X1029940Y757320D01*
X1027740Y755620D01*
X1025740Y753680D01*
X1024000Y751500D01*
X1022520Y749140D01*
X1021320Y746620D01*
X1020420Y743980D01*
X1019860Y741260D01*
X1019599Y738480D01*
X1019599Y737080D01*
X1019860Y734300D01*
X1020420Y731580D01*
X1021320Y728940D01*
X1022520Y726420D01*
X1024000Y724060D01*
X1025740Y721900D01*
X1027740Y719940D01*
X1029940Y718240D01*
X1032340Y716820D01*
X1034880Y715680D01*
X1036200Y715220D01*
X1038900Y714560D01*
X1040280Y714340D01*
X1043060Y714160D01*
X1070620Y714160D01*
X1073400Y714340D01*
X1076160Y714860D01*
X1077500Y715220D01*
X1080100Y716220D01*
X1082580Y717500D01*
X1084880Y719060D01*
X1086980Y720879D01*
X1088860Y722960D01*
X1090480Y725220D01*
X1091820Y727660D01*
X1092860Y730240D01*
X1093600Y732940D01*
X1094000Y735699D01*
X1094080Y738480D01*
X1093840Y741260D01*
X1093260Y743980D01*
X1092380Y746620D01*
X1091180Y749140D01*
X1089700Y751500D01*
X1087960Y753680D01*
X1085960Y755620D01*
X1083740Y757320D01*
X1081360Y758740D01*
X1078820Y759880D01*
X1076160Y760720D01*
X1073400Y761220D01*
X1072020Y761360D01*
G37*
G36*
X1136760Y556680D02*
G01*
X1136760Y540880D01*
X1187940Y540880D01*
X1187940Y556680D01*
G37*
G36*
X1136760Y582280D02*
G01*
X1136760Y566480D01*
X1187940Y566480D01*
X1187940Y582280D01*
G37*
G36*
X1136760Y607860D02*
G01*
X1136760Y592120D01*
X1187940Y592120D01*
X1187940Y607860D01*
G37*
G36*
X1136760Y633480D02*
G01*
X1136760Y617680D01*
X1187940Y617680D01*
X1187940Y633480D01*
G37*
G36*
X1136760Y659020D02*
G01*
X1136760Y643319D01*
X1187940Y643319D01*
X1187940Y659020D01*
G37*
G36*
X1022200Y590140D02*
G01*
X1022200Y531080D01*
X1097000Y531080D01*
X1097000Y590140D01*
G37*
G36*
X1022200Y668880D02*
G01*
X1022200Y609820D01*
X1097000Y609820D01*
X1097000Y668880D01*
G37*
G36*
X2585940Y668180D02*
G01*
X2584360Y666600D01*
X2584360Y646880D01*
X2585940Y645320D01*
X2604060Y645320D01*
X2605640Y646880D01*
X2605640Y666600D01*
X2604060Y668180D01*
G37*
G36*
X2585940Y634680D02*
G01*
X2584360Y633120D01*
X2584360Y613400D01*
X2585940Y611820D01*
X2604060Y611820D01*
X2605640Y613400D01*
X2605640Y633120D01*
X2604060Y634680D01*
G37*
G36*
X2500940Y529680D02*
G01*
X2499360Y528120D01*
X2499360Y508400D01*
X2500940Y506820D01*
X2519060Y506820D01*
X2520640Y508400D01*
X2520640Y528120D01*
X2519060Y529680D01*
G37*
G36*
X2500940Y563180D02*
G01*
X2499360Y561600D01*
X2499360Y541880D01*
X2500940Y540320D01*
X2519060Y540320D01*
X2520640Y541880D01*
X2520640Y561600D01*
X2519060Y563180D01*
G37*
G36*
X1918400Y804640D02*
G01*
X1916819Y803060D01*
X1916819Y784940D01*
X1918400Y783360D01*
X1938100Y783360D01*
X1939680Y784940D01*
X1939680Y803060D01*
X1938100Y804640D01*
G37*
G36*
X1951900Y804640D02*
G01*
X1950320Y803060D01*
X1950320Y784940D01*
X1951900Y783360D01*
X1971600Y783360D01*
X1973180Y784940D01*
X1973180Y803060D01*
X1971600Y804640D01*
G37*
G36*
X1453899Y323620D02*
G01*
X1452320Y322060D01*
X1452320Y303940D01*
X1453899Y302380D01*
X1473600Y302380D01*
X1475180Y303940D01*
X1475180Y322060D01*
X1473600Y323620D01*
G37*
G36*
X1420400Y323620D02*
G01*
X1418820Y322060D01*
X1418820Y303940D01*
X1420400Y302380D01*
X1440120Y302380D01*
X1441680Y303940D01*
X1441680Y322060D01*
X1440120Y323620D01*
G37*
G36*
X1565620Y343860D02*
G01*
X1564060Y342280D01*
X1564060Y324180D01*
X1565620Y322600D01*
X1585340Y322600D01*
X1586920Y324180D01*
X1586920Y342280D01*
X1585340Y343860D01*
G37*
G36*
X1532140Y343860D02*
G01*
X1530560Y342280D01*
X1530560Y324180D01*
X1532140Y322600D01*
X1551840Y322600D01*
X1553420Y324180D01*
X1553420Y342280D01*
X1551840Y343860D01*
G37*
G36*
X2101900Y520640D02*
G01*
X2100320Y519060D01*
X2100320Y500940D01*
X2101900Y499360D01*
X2121600Y499360D01*
X2123180Y500940D01*
X2123180Y519060D01*
X2121600Y520640D01*
G37*
G36*
X2068400Y520640D02*
G01*
X2066819Y519060D01*
X2066819Y500940D01*
X2068400Y499360D01*
X2088100Y499360D01*
X2089680Y500940D01*
X2089680Y519060D01*
X2088100Y520640D01*
G37*
G36*
X2031900Y774640D02*
G01*
X2030320Y773060D01*
X2030320Y754940D01*
X2031900Y753360D01*
X2051600Y753360D01*
X2053180Y754940D01*
X2053180Y773060D01*
X2051600Y774640D01*
G37*
G36*
X1998400Y774640D02*
G01*
X1996819Y773060D01*
X1996819Y754940D01*
X1998400Y753360D01*
X2018100Y753360D01*
X2019680Y754940D01*
X2019680Y773060D01*
X2018100Y774640D01*
G37*
G36*
X1825400Y802620D02*
G01*
X1823820Y801060D01*
X1823820Y782940D01*
X1825400Y781380D01*
X1845120Y781380D01*
X1846680Y782940D01*
X1846680Y801060D01*
X1845120Y802620D01*
G37*
G36*
X1858899Y802620D02*
G01*
X1857320Y801060D01*
X1857320Y782940D01*
X1858899Y781380D01*
X1878600Y781380D01*
X1880180Y782940D01*
X1880180Y801060D01*
X1878600Y802620D01*
G37*
G36*
X1950940Y384680D02*
G01*
X1949360Y383120D01*
X1949360Y363400D01*
X1950940Y361820D01*
X1969060Y361820D01*
X1970640Y363400D01*
X1970640Y383120D01*
X1969060Y384680D01*
G37*
G36*
X1950940Y418180D02*
G01*
X1949360Y416599D01*
X1949360Y396880D01*
X1950940Y395319D01*
X1969060Y395319D01*
X1970640Y396880D01*
X1970640Y416599D01*
X1969060Y418180D01*
G37*
G36*
X2111900Y775639D02*
G01*
X2110320Y774060D01*
X2110320Y755939D01*
X2111900Y754360D01*
X2131600Y754360D01*
X2133180Y755939D01*
X2133180Y774060D01*
X2131600Y775639D01*
G37*
G36*
X2078400Y775639D02*
G01*
X2076819Y774060D01*
X2076819Y755939D01*
X2078400Y754360D01*
X2098100Y754360D01*
X2099680Y755939D01*
X2099680Y774060D01*
X2098100Y775639D01*
G37*
G36*
X2179880Y468620D02*
G01*
X2178320Y467060D01*
X2178320Y448940D01*
X2179880Y447380D01*
X2199600Y447380D01*
X2201180Y448940D01*
X2201180Y467060D01*
X2199600Y468620D01*
G37*
G36*
X2146400Y468620D02*
G01*
X2144820Y467060D01*
X2144820Y448940D01*
X2146400Y447380D01*
X2166100Y447380D01*
X2167680Y448940D01*
X2167680Y467060D01*
X2166100Y468620D01*
G37*
G36*
X2380940Y349680D02*
G01*
X2379360Y348120D01*
X2379360Y328400D01*
X2380940Y326820D01*
X2399060Y326820D01*
X2400640Y328400D01*
X2400640Y348120D01*
X2399060Y349680D01*
G37*
G36*
X2380940Y383180D02*
G01*
X2379360Y381599D01*
X2379360Y361880D01*
X2380940Y360319D01*
X2399060Y360319D01*
X2400640Y361880D01*
X2400640Y381599D01*
X2399060Y383180D01*
G37*
G36*
X2335940Y349680D02*
G01*
X2334360Y348120D01*
X2334360Y328400D01*
X2335940Y326820D01*
X2354060Y326820D01*
X2355640Y328400D01*
X2355640Y348120D01*
X2354060Y349680D01*
G37*
G36*
X2335940Y383180D02*
G01*
X2334360Y381599D01*
X2334360Y361880D01*
X2335940Y360319D01*
X2354060Y360319D01*
X2355640Y361880D01*
X2355640Y381599D01*
X2354060Y383180D01*
G37*
G36*
X1866860Y658160D02*
G01*
X1866860Y551860D01*
X1973140Y551860D01*
X1973140Y658160D01*
G37*
G36*
X1973540Y529220D02*
G01*
X1973540Y493579D01*
X1984560Y493579D01*
X1984560Y529220D01*
G37*
G36*
X1953860Y529220D02*
G01*
X1953860Y493579D01*
X1964880Y493579D01*
X1964880Y529220D01*
G37*
G36*
X1934160Y529220D02*
G01*
X1934160Y493579D01*
X1945200Y493579D01*
X1945200Y529220D01*
G37*
G36*
X1914480Y529220D02*
G01*
X1914480Y493579D01*
X1925520Y493579D01*
X1925520Y529220D01*
G37*
G36*
X1894800Y529220D02*
G01*
X1894800Y493579D01*
X1905820Y493579D01*
X1905820Y529220D01*
G37*
G36*
X1875120Y529220D02*
G01*
X1875120Y493579D01*
X1886140Y493579D01*
X1886140Y529220D01*
G37*
G36*
X1855420Y529220D02*
G01*
X1855420Y493579D01*
X1866459Y493579D01*
X1866459Y529220D01*
G37*
G36*
X1808580Y551460D02*
G01*
X1808580Y540440D01*
X1844220Y540440D01*
X1844220Y551460D01*
G37*
G36*
X1808580Y571140D02*
G01*
X1808580Y560120D01*
X1844220Y560120D01*
X1844220Y571140D01*
G37*
G36*
X1808580Y590840D02*
G01*
X1808580Y579800D01*
X1844220Y579800D01*
X1844220Y590840D01*
G37*
G36*
X1808580Y610520D02*
G01*
X1808580Y599480D01*
X1844220Y599480D01*
X1844220Y610520D01*
G37*
G36*
X1808580Y630200D02*
G01*
X1808580Y619180D01*
X1844220Y619180D01*
X1844220Y630200D01*
G37*
G36*
X1808580Y649880D02*
G01*
X1808580Y638860D01*
X1844220Y638860D01*
X1844220Y649880D01*
G37*
G36*
X1808580Y669580D02*
G01*
X1808580Y658540D01*
X1844220Y658540D01*
X1844220Y669580D01*
G37*
G36*
X1855420Y716420D02*
G01*
X1855420Y680780D01*
X1866459Y680780D01*
X1866459Y716420D01*
G37*
G36*
X1875120Y716420D02*
G01*
X1875120Y680780D01*
X1886140Y680780D01*
X1886140Y716420D01*
G37*
G36*
X1894800Y716420D02*
G01*
X1894800Y680780D01*
X1905820Y680780D01*
X1905820Y716420D01*
G37*
G36*
X1914480Y716420D02*
G01*
X1914480Y680780D01*
X1925520Y680780D01*
X1925520Y716420D01*
G37*
G36*
X1934160Y716420D02*
G01*
X1934160Y680780D01*
X1945200Y680780D01*
X1945200Y716420D01*
G37*
G36*
X1953860Y716420D02*
G01*
X1953860Y680780D01*
X1964880Y680780D01*
X1964880Y716420D01*
G37*
G36*
X1973540Y716420D02*
G01*
X1973540Y680780D01*
X1984560Y680780D01*
X1984560Y716420D01*
G37*
G36*
X1995780Y669580D02*
G01*
X1995780Y658540D01*
X2031420Y658540D01*
X2031420Y669580D01*
G37*
G36*
X1995780Y649880D02*
G01*
X1995780Y638860D01*
X2031420Y638860D01*
X2031420Y649880D01*
G37*
G36*
X1995780Y630200D02*
G01*
X1995780Y619180D01*
X2031420Y619180D01*
X2031420Y630200D01*
G37*
G36*
X1995780Y610520D02*
G01*
X1995780Y599480D01*
X2031420Y599480D01*
X2031420Y610520D01*
G37*
G36*
X1995780Y590840D02*
G01*
X1995780Y579800D01*
X2031420Y579800D01*
X2031420Y590840D01*
G37*
G36*
X1995780Y571140D02*
G01*
X1995780Y560120D01*
X2031420Y560120D01*
X2031420Y571140D01*
G37*
G36*
X1995780Y551460D02*
G01*
X1995780Y540440D01*
X2031420Y540440D01*
X2031420Y551460D01*
G37*
D10*
G01*
X2296459Y779000D03*
G01*
X2329539Y779000D03*
D11*
G01*
X2508000Y670540D03*
G01*
X2508000Y637460D03*
G01*
X1280000Y781540D03*
G01*
X1280000Y748460D03*
G01*
X2100000Y621540D03*
G01*
X2100000Y588460D03*
D10*
G01*
X2121540Y690000D03*
G01*
X2088459Y690000D03*
G01*
X1111540Y340000D03*
G01*
X1078459Y340000D03*
G01*
X1104459Y840999D03*
G01*
X1137539Y840999D03*
G01*
X2234539Y396999D03*
G01*
X2201459Y396999D03*
D11*
G01*
X2670000Y651540D03*
G01*
X2670000Y618460D03*
G01*
X2645000Y819459D03*
G01*
X2645000Y852539D03*
G01*
X1218999Y324459D03*
G01*
X1218999Y357539D03*
D12*
G01*
X1230000Y774529D03*
G01*
X1230000Y715470D03*
G01*
X1285000Y689529D03*
G01*
X1285000Y630470D03*
G01*
X1285000Y535470D03*
G01*
X1285000Y594529D03*
D13*
G01*
X2493649Y795000D03*
D14*
G01*
X2576350Y795000D03*
D15*
G01*
X2578310Y413000D03*
G01*
X2491689Y413000D03*
D16*
G01*
X1705349Y396419D03*
G01*
X1374650Y396419D03*
G01*
X1705349Y573580D03*
G01*
X1374650Y573580D03*
G01*
X1384650Y823580D03*
G01*
X1715349Y823580D03*
G01*
X1384650Y646419D03*
G01*
X1715349Y646419D03*
D18*
G01*
X2425550Y681610D03*
G01*
X2335000Y681610D03*
G01*
X2244449Y681610D03*
D19*
G01*
X2335000Y458386D03*
D20*
G01*
X3463429Y952330D03*
G01*
X3413429Y952330D03*
G01*
X3363429Y952330D03*
G01*
X3313429Y952330D03*
G01*
X3263429Y952330D03*
G01*
X3213429Y952330D03*
G01*
X3163429Y952330D03*
G01*
X3113429Y952330D03*
G01*
X3063429Y952330D03*
G01*
X3013429Y952330D03*
G01*
X2963429Y952330D03*
G01*
X2913429Y952330D03*
G01*
X2863429Y952330D03*
G01*
X2813429Y952330D03*
D21*
G01*
X2754570Y822989D03*
G01*
X2754570Y772989D03*
G01*
X2754570Y722989D03*
G01*
X2754570Y672989D03*
G01*
X2754570Y622989D03*
G01*
X2754570Y572989D03*
G01*
X2754570Y522989D03*
G01*
X2754570Y472989D03*
G01*
X2754570Y422989D03*
G01*
X2754570Y372989D03*
D20*
G01*
X2813429Y243670D03*
G01*
X2863429Y243670D03*
G01*
X2913429Y243670D03*
G01*
X2963429Y243670D03*
G01*
X3013429Y243670D03*
G01*
X3063429Y243670D03*
G01*
X3113429Y243670D03*
G01*
X3163429Y243670D03*
G01*
X3213429Y243670D03*
G01*
X3263429Y243670D03*
G01*
X3313429Y243670D03*
G01*
X3363429Y243670D03*
G01*
X3413429Y243670D03*
G01*
X3463429Y243670D03*
D22*
G01*
X3161030Y657060D03*
G01*
X3161030Y712170D03*
G01*
X3161030Y601939D03*
G01*
X3216149Y601939D03*
G01*
X3216149Y657049D03*
G01*
X3216149Y712170D03*
G01*
X3105910Y712170D03*
G01*
X3105910Y657049D03*
G01*
X3105910Y601939D03*
D23*
G01*
X2117399Y424369D03*
G01*
X2042600Y424369D03*
G01*
X2080000Y345630D03*
G01*
X1870399Y424369D03*
G01*
X1795600Y424369D03*
G01*
X1833000Y345630D03*
D24*
G75*
G01
X1176430Y698420D02*
G03X1176430Y698420I-13290J0D01*
G75*
G01
X1176430Y501570D02*
G03X1176430Y501570I-13290J0D01*
M02*
